<?xml version="1.0" standalone="no"?>
<!DOCTYPE svg PUBLIC "-//W3C//DTD SVG 20010904//EN"
 "http://www.w3.org/TR/2001/REC-SVG-20010904/DTD/svg10.dtd">
<svg version="1.0" xmlns="http://www.w3.org/2000/svg"
 width="500.000000pt" height="74.000000pt" viewBox="0 0 500.000000 74.000000"
 preserveAspectRatio="xMidYMid meet">
<g transform="translate(0.000000,74.000000) scale(0.100000,-0.100000)"
fill="#000000" stroke="none">
<path d="M2783 703 c-9 -3 -6 -18 12 -52 35 -71 68 -105 164 -173 47 -33 107
-79 134 -100 26 -22 47 -37 47 -33 0 4 7 2 15 -5 8 -7 15 -17 15 -22 0 -6 -7
-5 -15 2 -16 13 22 -46 83 -129 18 -24 31 -45 29 -47 -1 -2 -17 -6 -35 -9 -30
-5 -35 -1 -65 41 -17 26 -45 61 -62 78 -16 17 -28 36 -27 41 2 6 0 7 -4 3 -4
-4 -19 1 -33 11 -14 10 -42 25 -61 33 -19 8 -41 22 -49 31 -7 10 -19 17 -25
17 -7 0 -33 21 -59 47 -51 51 -80 118 -77 180 3 53 -1 64 -9 28 -6 -28 1 -94
16 -140 5 -18 4 -19 -12 -5 -18 14 -18 14 -1 -12 21 -32 28 -36 19 -10 -4 9
16 -8 44 -38 28 -30 47 -57 42 -58 -5 -2 -6 -9 -3 -14 4 -7 2 -8 -5 -4 -6 4
-9 11 -7 15 3 4 -10 23 -29 41 -19 19 -35 29 -35 23 0 -7 -9 -10 -20 -8 -27 5
-26 -26 4 -90 23 -51 76 -105 102 -105 8 0 14 -4 14 -8 0 -5 15 -7 33 -5 25 4
29 2 17 -7 -12 -8 -6 -9 25 -5 29 4 35 3 20 -4 -14 -7 -15 -10 -5 -10 8 -1 26
-4 40 -6 22 -5 22 -4 5 4 -30 14 4 14 44 0 25 -9 30 -14 19 -21 -9 -7 -8 -8 6
-4 11 4 23 1 28 -6 6 -10 8 -8 8 5 0 9 -6 17 -13 17 -8 0 -22 9 -32 20 -10 11
-26 20 -35 20 -10 0 -23 7 -30 15 -7 8 -16 13 -20 10 -4 -3 -13 2 -20 10 -14
17 -30 20 -30 5 0 -5 7 -10 15 -10 32 0 13 -16 -20 -17 -22 -1 -33 3 -28 10 4
6 0 8 -10 4 -16 -6 -41 15 -30 26 3 4 0 7 -7 7 -7 0 -10 3 -7 6 4 4 12 2 19
-3 19 -15 58 -23 58 -12 0 5 -7 9 -15 9 -8 0 -15 4 -15 9 0 5 -10 11 -23 15
-12 3 -33 15 -45 26 -34 32 -52 19 -19 -13 30 -31 52 -67 40 -67 -15 1 -43 27
-36 33 3 4 1 7 -5 7 -15 0 -38 46 -45 93 l-6 38 46 -41 c43 -38 275 -161 253
-135 -6 7 -28 20 -50 30 -22 10 -40 22 -40 27 0 5 -4 6 -10 3 -5 -3 -10 -2
-10 4 0 6 -8 8 -17 4 -14 -5 -15 -3 -7 6 21 23 166 -70 166 -106 0 -4 4 -7 9
-6 11 4 63 -77 55 -85 -3 -3 -16 0 -29 7 -28 14 -128 31 -121 19 3 -4 3 -8 -1
-8 -14 0 -77 31 -91 45 -9 8 -23 15 -31 15 -9 0 -26 8 -37 17 -12 10 -8 4 7
-13 53 -59 111 -82 222 -87 55 -3 102 -6 105 -8 3 -1 25 -3 50 -4 25 0 53 -5
63 -9 27 -13 21 15 -13 63 -17 23 -34 40 -38 37 -4 -2 -25 21 -47 52 -21 30
-33 52 -26 48 7 -5 22 1 36 14 21 20 27 21 42 9 16 -12 17 -12 6 2 -10 13 -9
23 7 54 24 47 26 112 5 162 -20 47 -19 53 6 23 26 -32 13 -5 -18 36 -12 17
-20 34 -16 38 4 4 -1 4 -11 0 -12 -4 -17 -4 -13 2 3 6 -4 11 -15 11 -20 2 -20
1 -2 -12 25 -19 15 -19 -29 0 -20 8 -42 15 -49 15 -7 0 12 -11 42 -23 84 -34
120 -103 106 -201 -11 -73 -94 -138 -111 -87 -6 21 -35 37 -35 19 0 -7 -5 -6
-15 2 -8 7 -13 16 -10 19 5 9 -54 66 -102 100 -20 13 -40 20 -52 16 -11 -3
-24 1 -32 12 -13 16 -12 17 3 5 9 -8 22 -11 28 -7 7 4 -5 15 -27 27 -51 27
-115 89 -108 106 2 7 0 10 -5 7 -6 -3 -10 -1 -10 4 0 6 5 11 10 11 6 0 10 5
10 11 0 8 -6 7 -17 -2 -15 -13 -16 -12 -11 9 4 12 5 22 5 21 -1 0 -8 -3 -14
-6z m467 -93 c6 -11 9 -20 7 -20 -2 0 -12 9 -22 20 -10 11 -13 20 -7 20 6 0
16 -9 22 -20z m-359 -67 c13 -16 12 -17 -3 -4 -17 13 -22 21 -14 21 2 0 10 -8
17 -17z m104 -68 c18 -13 36 -21 40 -17 5 4 5 1 1 -5 -4 -7 -3 -13 2 -13 5 0
22 -12 38 -26 38 -34 14 -21 -61 34 -70 51 -71 52 -60 52 4 0 23 -11 40 -25z
m-155 -86 c0 -14 -5 -11 -31 17 l-24 27 28 -18 c15 -9 27 -21 27 -26z m79 -28
c18 -14 20 -19 9 -24 -19 -7 -41 7 -44 27 -3 21 5 20 35 -3z m365 -199 c14
-21 26 -42 26 -47 0 -9 -10 3 -45 58 -26 41 -12 32 19 -11z"/>
<path d="M2890 356 c0 -2 7 -7 16 -10 8 -3 12 -2 9 4 -6 10 -25 14 -25 6z"/>
<path d="M86 648 c-7 -62 3 -113 33 -164 12 -20 20 -38 17 -41 -6 -6 -46 53
-46 69 0 11 -2 11 -9 -1 -6 -9 -2 -20 10 -32 21 -21 26 -45 7 -33 -7 4 -8 3
-4 -5 4 -6 12 -9 17 -5 5 3 18 -5 28 -18 23 -27 19 -37 -7 -17 -10 8 -2 -1 17
-19 19 -18 81 -55 137 -82 56 -26 105 -53 108 -59 10 -16 -24 -14 -57 4 -15 8
-25 10 -22 5 4 -6 -9 -10 -30 -10 -20 0 -34 4 -30 9 3 6 -6 8 -21 5 -51 -9
-123 64 -137 141 -2 11 -7 28 -11 37 -4 9 -5 22 -1 28 3 5 1 10 -6 10 -26 0
19 -155 51 -175 6 -4 8 -16 5 -28 -4 -14 -3 -17 2 -10 7 10 18 8 48 -7 22 -11
51 -20 65 -20 20 0 22 -2 10 -11 -11 -8 -7 -9 17 -4 19 4 55 0 88 -10 31 -8
61 -13 67 -9 7 4 8 3 4 -4 -4 -7 -2 -12 5 -12 7 0 10 -2 8 -5 -3 -2 -33 5 -68
15 -34 11 -70 20 -79 19 -10 0 19 -11 63 -24 83 -24 98 -24 88 0 -8 23 3 18
21 -10 21 -32 12 -49 -17 -34 -11 7 -47 11 -79 10 -58 -2 -72 3 -168 60 l-35
21 29 -31 c46 -48 100 -68 199 -74 59 -4 87 -3 87 5 0 6 6 5 16 -3 8 -7 40
-13 70 -14 54 -2 54 -2 40 20 -9 13 -13 33 -11 45 3 17 1 19 -9 11 -10 -9 -17
-6 -30 13 -21 32 -20 42 1 25 14 -12 16 -12 11 1 -2 8 -13 15 -22 15 -10 0
-22 8 -27 18 -8 13 -6 17 6 17 10 0 13 -5 9 -12 -4 -7 -3 -8 5 -4 9 6 9 11 0
22 -8 10 -15 11 -24 4 -8 -6 -15 -6 -23 2 -16 16 -15 33 1 20 17 -14 71 27 94
71 17 33 21 115 8 156 -5 15 -4 21 3 17 6 -3 13 -2 16 3 4 5 2 12 -3 15 -5 4
-12 2 -16 -3 -3 -6 -22 8 -42 30 -19 21 -46 42 -59 45 -13 3 -22 10 -19 14 3
5 0 12 -6 16 -7 4 -9 3 -6 -2 4 -6 -50 -8 -143 -6 -82 3 -156 2 -165 -2 -14
-5 -14 -8 0 -36 26 -51 40 -54 246 -59 67 -2 115 -79 90 -144 -7 -19 -15 -26
-23 -20 -19 11 -39 13 -32 2 10 -16 -13 -9 -42 13 -35 27 -44 39 -38 50 3 5 2
8 -3 7 -4 -1 -20 3 -35 9 -15 6 -35 9 -43 6 -11 -4 -13 -2 -9 9 3 10 -4 22
-23 34 -15 10 -38 27 -51 38 -13 11 -28 20 -34 20 -5 0 -21 20 -34 45 -13 25
-23 41 -24 37 0 -12 30 -69 57 -104 14 -17 65 -60 115 -94 109 -75 197 -160
262 -253 43 -63 46 -70 32 -85 -15 -14 -16 -13 -16 5 0 12 -15 41 -33 65 -18
24 -41 57 -51 72 l-18 29 -21 -20 c-12 -11 -29 -17 -37 -14 -8 2 0 -11 18 -30
33 -35 44 -61 15 -37 -9 8 -18 13 -20 12 -1 -2 -2 -1 0 1 6 10 -38 45 -83 66
-28 13 -50 27 -50 31 0 5 -7 5 -17 2 -11 -4 -14 -3 -9 5 5 8 1 10 -10 5 -12
-4 -15 -3 -10 5 5 8 2 10 -9 6 -10 -4 -15 -2 -13 7 2 9 -4 13 -16 11 -10 -2
-15 1 -12 6 3 5 -6 20 -19 32 -47 44 -25 39 39 -8 50 -37 125 -84 176 -109 3
-2 20 6 38 17 l34 21 -25 19 c-28 22 -42 26 -31 8 4 -6 3 -8 -4 -4 -6 3 -13 2
-16 -3 -3 -5 6 -12 22 -16 25 -6 26 -7 8 -20 -16 -12 -22 -11 -50 8 -17 12
-32 25 -34 30 -2 4 -12 7 -21 7 -10 0 -46 21 -81 48 -84 63 -125 137 -123 225
1 38 6 63 15 68 10 7 9 9 -3 9 -13 0 -18 -13 -23 -52z m409 -7 c95 -38 134
-165 80 -257 -29 -50 -60 -65 -80 -38 -7 11 -11 22 -9 26 2 4 -1 10 -7 14 -8
5 -9 3 -4 -6 6 -10 4 -12 -8 -7 -23 9 -21 -2 6 -32 12 -14 -7 1 -42 33 -35 32
-81 69 -103 83 -21 14 -36 28 -33 31 2 3 11 -1 20 -8 8 -7 15 -9 15 -5 0 4 13
-6 28 -21 15 -16 40 -39 56 -52 26 -22 29 -22 40 -6 9 12 15 14 20 6 11 -18
22 -14 34 13 27 60 6 129 -50 163 -28 17 -46 19 -121 16 -94 -5 -116 2 -155
44 l-23 24 153 -4 c85 -3 166 -10 183 -17z m-285 -93 c0 -14 -19 1 -31 25 -12
22 -12 22 10 3 11 -11 21 -23 21 -28z m58 -37 c3 -10 0 -10 -16 -2 -30 16 -38
33 -11 22 13 -4 25 -14 27 -20z m187 -241 c4 -6 11 -7 17 -4 6 4 5 -3 -2 -16
-7 -13 -8 -20 -1 -16 12 8 34 -28 23 -38 -3 -4 1 -4 10 -1 13 5 15 2 11 -14
-4 -16 -1 -21 14 -21 11 0 20 -7 20 -15 0 -23 -24 -18 -44 10 -10 14 -32 44
-50 67 -30 39 -34 58 -13 58 5 0 12 -5 15 -10z"/>
<path d="M212 624 c9 -9 127 -11 140 -2 7 4 -22 8 -66 8 -44 0 -77 -2 -74 -6z"/>
<path d="M375 620 c-3 -5 1 -10 9 -10 9 0 16 5 16 10 0 6 -4 10 -9 10 -6 0
-13 -4 -16 -10z"/>
<path d="M421 616 c12 -10 60 -16 54 -6 -3 5 -18 10 -32 10 -15 0 -24 -2 -22
-4z"/>
<path d="M490 591 c0 -16 31 -42 42 -35 6 4 8 -1 3 -15 -3 -11 -3 -26 1 -32 9
-16 11 -89 2 -89 -5 0 -8 -5 -8 -11 0 -6 -7 -17 -15 -26 -17 -16 -11 -35 8
-27 16 7 42 43 52 73 5 16 4 21 -4 17 -6 -4 -11 -2 -11 3 0 6 5 11 10 11 13 0
13 46 -1 73 -25 49 -79 88 -79 58z m31 -18 c13 -16 12 -17 -3 -4 -17 13 -22
21 -14 21 2 0 10 -8 17 -17z m49 -93 c0 -5 -5 -10 -11 -10 -5 0 -7 5 -4 10 3
6 8 10 11 10 2 0 4 -4 4 -10z"/>
<path d="M390 690 c-9 -6 -10 -10 -3 -10 6 0 15 5 18 10 8 12 4 12 -15 0z"/>
<path d="M4868 693 c7 -3 16 -2 19 1 4 3 -2 6 -13 5 -11 0 -14 -3 -6 -6z"/>
<path d="M2835 660 c-8 -12 7 -40 35 -65 20 -18 53 -22 218 -25 49 0 92 -46
92 -97 0 -21 -5 -45 -10 -53 -8 -12 -10 -13 -10 -1 0 11 -5 10 -19 -5 -22 -23
-18 -32 6 -13 15 13 16 12 10 -6 -6 -16 -3 -15 13 5 27 35 27 108 -1 144 -30
38 -59 47 -157 47 -94 0 -144 15 -162 49 l-12 22 135 -4 c74 -2 133 0 130 5
-7 11 -261 9 -268 -3z"/>
<path d="M4863 663 c9 -2 25 -2 35 0 9 3 1 5 -18 5 -19 0 -27 -2 -17 -5z"/>
<path d="M534 649 c11 -6 30 -24 43 -38 l24 -26 -15 26 c-9 14 -14 28 -11 31
3 2 -1 5 -7 5 -7 0 -22 4 -33 8 -19 6 -19 6 -1 -6z"/>
<path d="M4811 635 c-11 -12 -19 -37 -20 -62 -1 -35 4 -46 30 -67 17 -15 43
-26 59 -26 16 0 42 11 59 26 25 21 31 32 29 64 -1 24 -5 37 -11 33 -6 -4 -8 0
-4 10 9 24 -18 39 -74 41 -39 1 -54 -4 -68 -19z m24 5 c-3 -5 7 -12 22 -16 44
-9 50 -12 26 -13 -15 -1 -23 -7 -22 -18 0 -11 3 -13 6 -5 7 17 20 15 20 -3 0
-8 -6 -15 -13 -15 -7 0 -15 -8 -17 -17 -3 -10 -6 0 -7 22 l-2 40 -8 -35 c-7
-26 -5 -39 6 -50 13 -13 15 -12 20 7 4 13 11 20 16 17 5 -3 7 -12 4 -19 -3 -9
2 -12 16 -10 26 5 36 15 16 15 -22 0 -30 27 -11 34 11 5 14 2 9 -11 -6 -14 -4
-15 4 -6 19 18 -10 66 -45 75 -24 6 -21 6 13 4 30 -3 40 -1 35 7 -4 7 1 6 10
-2 19 -15 23 -26 5 -15 -8 5 -9 2 -3 -12 5 -10 8 -31 8 -46 0 -15 4 -25 9 -21
6 3 5 -4 -1 -14 -5 -11 -24 -26 -41 -33 -27 -11 -37 -11 -66 3 -19 9 -35 22
-35 29 -5 57 -3 86 10 101 15 18 26 23 16 7z m66 -53 c-10 -9 -11 -8 -5 6 3
10 9 15 12 12 3 -3 0 -11 -7 -18z"/>
<path d="M4817 623 c-4 -3 -7 -11 -7 -17 0 -6 5 -5 12 2 6 6 9 14 7 17 -3 3
-9 2 -12 -2z"/>
<path d="M4868 503 c6 -2 18 -2 25 0 6 3 1 5 -13 5 -14 0 -19 -2 -12 -5z"/>
<path d="M2732 625 c-6 -14 -8 -25 -3 -25 8 0 23 41 17 47 -1 2 -8 -8 -14 -22z"/>
<path d="M4780 639 c0 -5 5 -7 10 -4 6 3 10 8 10 11 0 2 -4 4 -10 4 -5 0 -10
-5 -10 -11z"/>
<path d="M2910 620 c0 -5 7 -7 15 -4 8 4 15 8 15 10 0 2 -7 4 -15 4 -8 0 -15
-4 -15 -10z"/>
<path d="M2960 622 c0 -5 7 -9 15 -9 8 0 15 4 15 9 0 4 -7 8 -15 8 -8 0 -15
-4 -15 -8z"/>
<path d="M3030 620 c-13 -9 -13 -10 0 -10 8 0 22 5 30 10 13 9 13 10 0 10 -8
0 -22 -5 -30 -10z"/>
<path d="M3105 613 c11 -3 25 -9 31 -14 6 -5 19 -7 28 -3 12 4 15 2 11 -9 -7
-16 20 -31 38 -20 7 4 6 -1 -2 -10 -11 -14 -11 -20 0 -33 14 -17 14 -83 -1
-98 -6 -6 -10 -18 -10 -29 0 -10 -4 -16 -9 -12 -6 3 -9 -4 -8 -15 1 -11 4 -20
8 -20 14 0 32 31 32 55 0 23 1 24 13 8 12 -17 13 -16 14 5 0 12 -5 22 -12 22
-7 0 -5 5 4 13 18 14 14 82 -5 70 -6 -3 -7 -1 -3 6 11 17 -22 64 -40 57 -8 -3
-12 -2 -9 3 8 14 -4 18 -55 24 -25 2 -36 2 -25 0z"/>
<path d="M2797 571 c9 -36 40 -91 47 -84 3 4 6 1 6 -6 0 -7 13 -26 29 -42 28
-28 48 -39 36 -20 -9 15 16 24 28 11 9 -10 9 -11 -3 -5 -12 7 -13 6 -3 -7 7
-8 10 -18 6 -21 -3 -4 -1 -7 6 -7 6 0 11 6 9 13 -2 6 2 12 7 12 6 0 9 -3 8 -7
-2 -4 4 -5 11 -2 11 4 13 0 9 -15 -6 -22 12 -30 20 -8 3 7 6 5 6 -5 1 -12 6
-15 17 -11 12 4 15 2 12 -8 -3 -8 -11 -13 -17 -11 -7 1 -9 -2 -6 -8 4 -6 12
-9 18 -7 6 2 20 -4 30 -14 11 -10 25 -15 33 -12 8 3 14 0 14 -6 0 -6 -5 -11
-10 -11 -6 0 -5 -6 2 -14 7 -8 16 -12 21 -9 4 2 7 0 7 -6 0 -6 11 -21 24 -34
14 -14 23 -27 21 -29 -8 -7 33 -50 44 -47 13 5 -68 125 -122 179 -36 37 -101
87 -189 146 -29 20 -69 54 -90 76 -27 29 -35 34 -31 19z m97 -107 c3 -8 12
-11 23 -7 16 6 16 5 4 -11 -14 -16 -16 -16 -27 -2 -6 9 -16 16 -21 16 -5 0
-10 6 -10 14 0 17 23 10 31 -10z"/>
<path d="M1507 569 c7 -9 9 -20 5 -25 -4 -4 1 -2 11 5 11 9 17 10 17 2 0 -6 5
-11 11 -11 8 0 7 5 -1 15 -7 9 -15 13 -18 10 -3 -3 -12 1 -21 8 -14 10 -14 10
-4 -4z"/>
<path d="M4354 563 c11 -13 26 -22 35 -22 13 1 12 2 -2 6 -15 4 -16 7 -5 21
11 15 11 15 -3 5 -12 -10 -18 -10 -29 0 -8 6 -6 2 4 -10z"/>
<path d="M130 557 c0 -23 22 -67 33 -67 5 0 3 8 -4 18 -13 15 -12 16 4 3 26
-21 21 4 -8 35 -18 20 -25 23 -25 11z"/>
<path d="M787 559 c7 -7 15 -10 18 -7 3 3 -2 9 -12 12 -14 6 -15 5 -6 -5z"/>
<path d="M910 560 c8 -5 20 -10 25 -10 6 0 3 5 -5 10 -8 5 -19 10 -25 10 -5 0
-3 -5 5 -10z"/>
<path d="M1210 559 c0 -5 -4 -8 -9 -4 -5 3 -12 1 -15 -4 -4 -5 2 -8 11 -7 15
3 33 26 19 26 -3 0 -6 -5 -6 -11z"/>
<path d="M1446 561 c-4 -5 -2 -12 3 -15 5 -4 12 -2 15 3 4 5 2 12 -3 15 -5 4
-12 2 -15 -3z"/>
<path d="M1580 561 c0 -6 4 -13 10 -16 6 -3 7 1 4 9 -7 18 -14 21 -14 7z"/>
<path d="M4023 545 c-12 -14 -16 -25 -10 -25 6 0 -9 -20 -33 -45 -24 -24 -47
-42 -51 -40 -11 7 -33 -25 -23 -33 5 -4 41 25 79 64 39 39 64 69 57 66 -12 -4
-12 -1 -3 16 15 28 11 27 -16 -3z m-100 -130 c-3 -9 -8 -14 -10 -11 -3 3 -2 9
2 15 9 16 15 13 8 -4z"/>
<path d="M405 550 c-4 -6 -3 -10 2 -9 4 1 10 1 13 -1 3 -1 16 -3 30 -6 18 -3
21 -2 10 5 -8 5 -18 7 -22 5 -4 -3 -8 0 -8 5 0 14 -17 14 -25 1z"/>
<path d="M977 549 c11 -13 1 -15 -76 -11 -80 4 -95 2 -146 -22 -42 -19 -56
-22 -51 -11 3 8 1 15 -3 15 -5 0 -11 -7 -15 -15 -3 -8 0 -15 6 -15 6 0 2 -10
-9 -22 -68 -75 -75 -195 -17 -279 14 -20 48 -49 77 -65 46 -26 62 -29 137 -29
67 1 94 5 126 22 51 27 98 80 114 128 13 38 9 134 -5 170 -8 17 -6 18 6 8 13
-10 16 -10 16 1 0 8 -8 13 -19 11 -10 -2 -22 4 -28 14 -13 25 0 35 17 13 12
-15 13 -15 7 0 -6 17 -46 48 -61 48 -4 0 0 -5 10 -11 9 -5 17 -14 17 -20 0 -5
-11 -2 -24 7 -15 9 -22 21 -19 30 3 8 0 14 -7 14 -6 0 -8 -5 -4 -12 5 -8 2 -9
-10 -5 -10 4 -21 7 -24 7 -4 0 -1 4 7 9 11 7 9 12 -10 22 -21 11 -22 10 -12
-2z m34 -47 c70 -36 103 -92 104 -172 0 -73 -9 -103 -46 -144 -84 -97 -289
-99 -376 -5 -66 72 -70 187 -10 273 54 77 225 102 328 48z"/>
<path d="M795 496 c-22 -7 -39 -17 -38 -23 1 -6 -6 -9 -17 -6 -28 7 -72 -65
-78 -129 -4 -42 -2 -49 9 -43 12 7 12 6 1 -7 -10 -13 -10 -19 3 -31 8 -9 11
-17 6 -19 -5 -2 -1 -13 9 -26 16 -19 23 -21 40 -12 20 11 20 11 -5 49 -21 31
-25 46 -20 77 4 21 7 51 8 67 1 15 7 27 14 27 6 0 15 5 19 12 5 8 0 9 -14 6
-13 -4 -20 -2 -16 3 3 6 13 9 22 7 10 -1 30 6 45 17 16 10 42 18 57 18 17 0
26 5 23 10 -4 6 -1 7 8 2 7 -5 27 -10 44 -12 16 -2 31 -8 33 -13 2 -5 10 -6
18 -3 8 3 14 0 14 -7 0 -7 7 -10 16 -6 8 3 12 2 9 -4 -3 -6 0 -10 8 -10 7 0
24 -12 38 -27 13 -15 17 -22 7 -15 -10 8 -19 9 -22 3 -4 -5 -1 -13 5 -16 5 -4
8 -13 5 -21 -3 -8 0 -11 10 -7 7 3 14 0 14 -6 0 -6 -5 -11 -10 -11 -6 0 -9
-12 -7 -27 2 -16 -3 -38 -11 -51 -14 -21 -13 -25 7 -43 23 -22 27 -18 11 11
-8 15 -7 18 3 15 21 -8 39 57 31 111 -8 57 -44 100 -101 125 -58 25 -147 31
-198 15z m-92 -111 c-3 -9 -8 -14 -10 -11 -3 3 -2 9 2 15 9 16 15 13 8 -4z
m383 -70 c-1 -8 -5 -17 -8 -21 -5 -4 -4 16 1 34 3 9 9 -1 7 -13z m-366 -90 c7
-9 8 -15 2 -15 -5 0 -12 7 -16 15 -3 8 -4 15 -2 15 2 0 9 -7 16 -15z"/>
<path d="M798 444 c-39 -17 -78 -78 -78 -122 0 -29 24 -87 40 -97 7 -4 5 5 -4
23 -20 40 -21 111 0 140 51 73 209 69 248 -7 26 -50 13 -152 -16 -135 -7 4
-10 4 -6 -1 9 -9 -9 -35 -24 -35 -7 0 -6 5 1 13 8 10 7 14 -4 14 -8 0 -12 -4
-9 -9 6 -9 -47 -4 -67 7 -11 6 -12 5 -2 -5 7 -7 23 -14 35 -16 42 -4 43 -5 23
-14 -19 -8 -19 -9 -1 -9 10 -1 36 16 57 38 35 34 39 44 39 87 0 91 -57 145
-152 143 -24 0 -60 -7 -80 -15z"/>
<path d="M1017 419 c7 -7 15 -10 18 -7 3 3 -2 9 -12 12 -14 6 -15 5 -6 -5z"/>
<path d="M765 279 c-3 -4 2 -6 10 -5 21 3 28 13 10 13 -9 0 -18 -4 -20 -8z"/>
<path d="M970 285 c0 -2 6 -8 13 -14 10 -8 14 -7 14 2 0 8 -6 14 -14 14 -7 0
-13 -1 -13 -2z"/>
<path d="M776 251 c-4 -6 -2 -11 4 -11 7 0 10 -7 6 -15 -6 -16 28 -39 47 -31
7 2 3 5 -8 5 -17 1 -17 3 -5 11 11 7 11 10 2 10 -7 0 -10 5 -6 12 4 6 3 8 -4
4 -6 -3 -15 1 -20 10 -6 11 -11 13 -16 5z"/>
<path d="M992 201 c-58 -50 -142 -54 -222 -11 -28 15 -56 -4 -37 -25 9 -10 14
-9 25 4 12 15 13 14 8 -1 -5 -18 3 -22 37 -19 9 1 17 -3 17 -10 0 -9 3 -9 14
0 10 9 15 9 18 1 2 -8 11 -8 30 -1 14 5 35 7 47 4 12 -3 21 -1 21 6 0 6 5 11
11 11 5 0 7 -6 3 -12 -4 -7 4 -3 18 10 16 15 27 19 30 12 2 -7 10 -5 21 7 14
16 15 22 4 36 -11 14 -15 13 -45 -12z m42 -12 c-6 -11 -24 -2 -24 11 0 5 7 7
15 4 8 -4 12 -10 9 -15z"/>
<path d="M858 208 c5 -5 16 -8 23 -6 8 3 3 7 -10 11 -17 4 -21 3 -13 -5z"/>
<path d="M863 183 c9 -2 25 -2 35 0 9 3 1 5 -18 5 -19 0 -27 -2 -17 -5z"/>
<path d="M895 130 c-3 -5 -1 -10 4 -10 6 0 11 5 11 10 0 6 -2 10 -4 10 -3 0
-8 -4 -11 -10z"/>
<path d="M1815 551 c6 -10 -18 -15 -55 -12 -9 1 -27 -10 -39 -23 -13 -14 -28
-23 -34 -19 -6 3 -7 1 -3 -5 3 -6 -5 -23 -20 -39 -14 -15 -21 -29 -15 -31 6
-2 0 -24 -14 -53 -27 -53 -78 -229 -67 -229 4 0 -3 -8 -16 -18 -21 -16 -20
-17 58 -14 l79 3 -6 29 c-11 59 47 220 96 264 20 18 22 18 40 2 48 -44 108
-202 98 -262 l-6 -33 80 -3 c43 -2 79 -2 79 0 0 10 -62 24 -97 23 -42 -2 -43
-2 -43 31 0 74 -49 196 -105 263 -24 29 -25 29 -40 10 -74 -95 -115 -189 -115
-265 0 -35 -3 -40 -22 -40 -14 0 -18 3 -12 8 6 4 13 21 16 38 3 26 1 31 -11
27 -12 -3 -11 -1 2 7 26 17 20 31 -9 18 -17 -8 -24 -18 -21 -30 3 -10 2 -18
-3 -18 -4 0 -10 -9 -13 -19 -3 -14 -1 -18 9 -14 8 3 14 9 14 14 0 5 5 9 10 9
6 0 5 -8 -2 -20 -15 -24 -55 -23 -49 0 47 188 66 236 124 305 23 28 34 44 24
36 -23 -18 -22 1 1 22 26 24 49 23 31 0 -13 -17 -13 -17 7 0 29 24 40 22 89
-19 67 -55 112 -135 140 -253 10 -39 23 -79 31 -88 13 -19 -12 84 -41 166 -16
46 -13 72 4 30 6 -15 10 -18 10 -8 1 9 -6 22 -14 29 -8 7 -15 9 -15 4 0 -11
-29 29 -30 40 0 5 10 1 22 -10 17 -16 16 -12 -6 23 -24 35 -44 53 -66 55 -16
1 -60 42 -51 47 6 4 2 12 -10 20 -12 7 -18 8 -14 2z m-127 -101 c-23 -32 -28
-35 -28 -20 0 8 39 50 47 50 2 0 -6 -13 -19 -30z m251 -25 c-3 -2 -16 10 -29
28 l-23 32 29 -27 c15 -15 26 -30 23 -33z"/>
<path d="M2135 549 c-3 -4 2 -6 10 -5 21 3 28 13 10 13 -9 0 -18 -4 -20 -8z"/>
<path d="M3445 550 c-4 -6 -12 -8 -18 -4 -7 3 -4 -1 5 -9 16 -13 16 -15 -8
-25 -31 -15 -31 -15 -31 3 0 10 6 14 16 10 12 -5 13 -3 4 6 -15 15 -36 1 -30
-21 3 -12 -5 -28 -21 -42 -19 -17 -24 -19 -19 -6 3 10 2 20 -3 23 -5 3 -7 -7
-5 -23 2 -15 -1 -35 -6 -43 -8 -10 -9 -8 -4 9 4 13 2 22 -4 22 -6 0 -11 -7
-11 -15 0 -9 -7 -29 -15 -45 -9 -17 -13 -30 -11 -30 3 0 11 11 18 25 12 21 13
15 13 -58 0 -45 4 -93 9 -106 6 -18 5 -22 -4 -16 -9 5 -11 4 -6 -4 4 -6 11 -9
15 -7 4 3 21 -8 37 -25 53 -56 99 -74 194 -74 68 0 93 5 125 22 49 26 100 78
115 118 19 49 14 138 -9 184 -12 22 -18 41 -13 41 5 0 14 -10 20 -22 8 -17 11
-18 11 -7 1 18 -20 39 -41 43 -23 3 -39 17 -32 28 4 6 0 14 -7 19 -23 15 -34
10 -13 -6 10 -8 16 -15 13 -15 -12 0 -89 37 -85 41 3 2 -32 3 -76 1 -49 -2
-85 1 -91 7 -14 14 -24 14 -32 1z m30 -10 c3 -5 -1 -10 -9 -10 -9 0 -16 5 -16
10 0 6 4 10 9 10 6 0 13 -4 16 -10z m211 -34 c28 -13 55 -29 58 -35 4 -6 13
-8 19 -5 7 4 9 4 5 0 -3 -4 2 -26 13 -49 27 -60 25 -142 -4 -197 -22 -43 -60
-79 -88 -84 -8 -2 -27 -8 -42 -14 -36 -15 -121 -16 -112 -1 4 6 13 8 21 5 7
-3 20 4 27 15 14 19 15 19 21 2 6 -15 8 -15 16 -3 6 8 10 11 10 6 0 -5 9 -1
19 8 13 12 21 14 26 6 3 -5 11 -8 16 -4 5 3 7 9 4 14 -3 4 2 11 11 14 10 4 13
2 8 -7 -3 -6 5 1 19 18 26 31 26 51 1 41 -12 -4 -12 -2 -4 14 12 23 32 27 24
5 -4 -8 -1 -15 4 -15 13 0 25 36 17 50 -3 5 -1 19 5 30 6 11 7 20 2 20 -15 0
-64 -58 -58 -68 4 -6 2 -13 -4 -17 -5 -3 -10 -18 -10 -33 0 -18 -3 -23 -9 -14
-6 10 -11 9 -22 -4 -12 -15 -12 -17 0 -9 10 5 12 4 7 -4 -4 -6 -12 -9 -17 -5
-5 3 -15 1 -22 -5 -19 -15 -113 -20 -158 -8 -22 5 -37 12 -34 15 8 8 -48 30
-62 24 -19 -6 -16 -15 8 -30 12 -8 18 -9 15 -3 -4 7 -1 8 8 5 9 -3 13 -11 9
-17 -4 -7 0 -8 11 -4 13 5 17 3 13 -7 -4 -10 -1 -13 9 -9 8 3 20 0 27 -6 10
-8 19 -6 36 5 31 22 36 12 7 -15 -21 -20 -28 -21 -62 -12 -96 26 -154 102
-154 199 0 55 19 113 48 146 59 66 220 88 318 42z m84 -226 c0 -5 -7 -7 -15
-4 -8 4 -15 8 -15 10 0 2 7 4 15 4 8 0 15 -4 15 -10z"/>
<path d="M3537 504 c-3 -3 -22 -8 -41 -9 -38 -4 -86 -31 -86 -48 0 -6 -3 -7
-6 -4 -8 7 -54 -42 -54 -57 0 -6 14 3 30 19 17 16 30 26 30 22 0 -4 -16 -21
-35 -38 -30 -27 -35 -37 -35 -75 0 -24 5 -44 10 -44 6 0 17 -6 24 -12 12 -11
12 -16 -1 -30 -19 -21 -8 -23 25 -4 21 11 22 14 8 25 -10 8 -16 29 -16 52 0
25 -6 42 -17 49 -17 11 -17 11 0 6 9 -3 18 -1 18 4 1 6 2 15 3 21 0 6 8 16 16
22 8 7 16 19 18 27 5 22 23 41 33 34 5 -3 9 0 9 7 0 10 3 10 12 1 7 -7 17 -12
23 -12 5 0 3 5 -5 10 -17 11 -9 13 78 14 41 1 52 -2 50 -14 -2 -8 -12 -16 -22
-18 -10 -2 -16 0 -13 5 5 8 -64 12 -73 3 -3 -3 -21 -13 -41 -23 -46 -24 -69
-64 -69 -122 0 -42 5 -52 39 -86 21 -22 47 -39 57 -38 18 0 18 1 -1 9 l-20 9
20 0 c18 1 17 3 -5 14 -14 8 -24 19 -22 26 2 9 -3 9 -18 1 -17 -9 -22 -7 -30
15 -25 66 0 138 55 161 74 31 172 9 199 -45 32 -61 12 -146 -34 -145 -15 0
-24 6 -22 13 1 7 -2 10 -8 6 -8 -5 -7 -12 2 -23 11 -14 10 -15 -7 -9 -19 7
-19 6 -2 -7 18 -14 18 -14 0 -19 -17 -4 -17 -5 1 -6 10 0 36 16 57 38 33 32
39 45 39 79 0 22 -4 51 -9 64 -12 31 -57 79 -66 70 -4 -4 -6 0 -3 8 2 8 15 17
29 20 28 7 14 19 -29 26 -15 2 -41 6 -58 9 -17 3 -33 2 -37 -1z m-157 -184 c0
-5 -4 -10 -10 -10 -5 0 -10 5 -10 10 0 6 5 10 10 10 6 0 10 -4 10 -10z m104
-109 c-2 -3 -12 3 -22 13 -16 17 -16 18 5 5 12 -7 20 -15 17 -18z m171 9 c-3
-5 -12 -10 -18 -10 -7 0 -6 4 3 10 19 12 23 12 15 0z"/>
<path d="M3679 448 c-11 -21 -11 -22 4 -9 18 14 22 7 17 -28 -1 -12 1 -13 13
-2 20 16 34 -4 17 -24 -7 -8 -8 -20 -4 -27 5 -7 7 -22 6 -33 -3 -16 1 -14 22
10 l24 30 -21 39 c-12 21 -32 45 -44 53 -20 13 -23 12 -34 -9z m75 -89 c-3 -5
-10 -7 -15 -3 -5 3 -7 10 -3 15 3 5 10 7 15 3 5 -3 7 -10 3 -15z"/>
<path d="M3494 409 c-3 -6 -1 -16 5 -22 9 -9 10 -7 5 7 -6 15 -4 17 6 11 9 -5
11 -4 6 3 -9 15 -13 15 -22 1z"/>
<path d="M3647 389 c7 -7 15 -10 18 -7 3 3 -2 9 -12 12 -14 6 -15 5 -6 -5z"/>
<path d="M3645 360 c-4 -6 1 -7 11 -3 13 5 15 3 9 -7 -5 -9 -4 -11 4 -6 6 4 9
12 6 17 -8 12 -22 12 -30 -1z"/>
<path d="M3350 240 c0 -5 5 -10 10 -10 6 0 10 5 10 10 0 6 -4 10 -10 10 -5 0
-10 -4 -10 -10z"/>
<path d="M3548 203 c6 -2 18 -2 25 0 6 3 1 5 -13 5 -14 0 -19 -2 -12 -5z"/>
<path d="M3548 183 c6 -2 18 -2 25 0 6 3 1 5 -13 5 -14 0 -19 -2 -12 -5z"/>
<path d="M4088 548 c-13 -11 -6 -22 52 -78 37 -36 65 -59 62 -51 -3 9 -1 12 6
7 6 -3 14 -1 18 5 4 8 3 9 -4 5 -12 -7 -38 32 -33 49 1 6 -1 7 -5 3 -4 -4 -14
-2 -23 4 -13 10 -14 10 -3 -2 20 -23 14 -35 -8 -15 -11 10 -18 20 -15 23 2 3
-1 14 -6 25 -8 15 -13 16 -19 7 -4 -7 -13 -9 -19 -5 -9 5 -7 11 6 21 10 7 15
14 12 14 -3 0 -12 -6 -21 -12z m103 -105 c13 -16 12 -17 -3 -4 -17 13 -22 21
-14 21 2 0 10 -8 17 -17z"/>
<path d="M2742 536 c7 -8 15 -12 17 -11 5 6 -10 25 -20 25 -5 0 -4 -6 3 -14z"/>
<path d="M3126 535 c4 -8 11 -15 16 -15 6 0 5 6 -2 15 -7 8 -14 15 -16 15 -2
0 -1 -7 2 -15z"/>
<path d="M4588 543 c6 -2 18 -2 25 0 6 3 1 5 -13 5 -14 0 -19 -2 -12 -5z"/>
<path d="M4660 540 c-9 -6 -10 -10 -3 -10 6 0 15 5 18 10 8 12 4 12 -15 0z"/>
<path d="M4765 540 c3 -5 8 -10 11 -10 2 0 4 5 4 10 0 6 -5 10 -11 10 -5 0 -7
-4 -4 -10z"/>
<path d="M626 527 c3 -10 9 -15 12 -12 3 3 0 11 -7 18 -10 9 -11 8 -5 -6z"/>
<path d="M1122 523 c2 -5 10 -21 17 -38 63 -141 74 -157 123 -192 l50 -36 -4
-58 c-2 -32 1 -54 5 -50 4 4 7 34 5 67 -3 55 -5 60 -41 84 -45 31 -91 97 -108
157 -6 25 -19 48 -28 51 -9 4 13 10 49 13 l65 6 -68 1 c-38 1 -67 -1 -65 -5z"/>
<path d="M1256 514 c-22 -58 19 -136 90 -172 18 -9 28 -7 58 16 20 15 42 37
51 48 19 29 31 104 16 104 -6 0 -11 -15 -11 -32 0 -36 -20 -83 -35 -83 -6 0
-16 -4 -22 -8 -7 -5 -17 -6 -22 -2 -5 3 -12 1 -16 -5 -4 -6 -21 0 -43 16 l-37
26 29 -26 c15 -15 26 -30 22 -33 -10 -11 -55 38 -66 74 -7 18 -9 47 -5 63 7
32 1 41 -9 14z m140 -148 c-16 -14 -35 -22 -43 -19 -11 4 -10 8 4 18 9 7 23
11 29 8 7 -2 15 0 19 6 3 6 9 11 13 11 4 -1 -6 -11 -22 -24z"/>
<path d="M1450 523 c0 -5 36 -8 80 -8 44 0 80 3 80 8 0 4 -36 7 -80 7 -44 0
-80 -3 -80 -7z"/>
<path d="M1860 521 c0 -5 7 -12 16 -15 14 -5 15 -4 4 9 -14 17 -20 19 -20 6z"/>
<path d="M2096 513 c5 -10 9 -100 9 -200 0 -100 4 -178 8 -174 4 4 8 88 8 186
-1 133 -4 181 -13 187 -7 4 18 7 57 7 39 0 64 -3 58 -6 -10 -3 -13 -45 -13
-156 -1 -128 -3 -149 -14 -135 -7 10 -12 36 -10 59 2 31 0 40 -10 36 -8 -3
-18 -1 -23 4 -5 5 -9 -8 -9 -36 -1 -36 2 -43 13 -34 9 9 13 8 13 0 0 -6 -7
-14 -15 -17 -11 -4 -15 -19 -13 -50 1 -49 5 -52 39 -25 13 10 29 16 36 14 6
-2 14 1 18 7 4 7 -5 10 -25 8 -17 -1 -34 -6 -36 -10 -3 -4 -10 -8 -17 -8 -18
0 17 31 39 34 17 3 19 15 24 147 3 79 9 152 14 162 7 15 1 17 -69 17 -70 0
-76 -2 -69 -17z m79 -233 c-3 -5 -11 -10 -16 -10 -6 0 -7 5 -4 10 3 6 11 10
16 10 6 0 7 -4 4 -10z"/>
<path d="M4350 522 c0 -4 5 -13 10 -18 7 -7 10 -75 8 -192 -2 -117 0 -178 7
-175 6 2 1 -3 -9 -11 -18 -15 -8 -16 131 -16 138 0 153 2 194 23 24 13 58 43
74 66 27 38 30 51 30 114 0 40 -4 83 -8 97 l-8 25 16 -25 c12 -18 14 -19 9 -5
-3 11 -7 25 -7 32 0 7 -4 10 -9 7 -4 -3 -8 0 -8 5 0 22 -2 26 -16 43 -9 9 -27
15 -41 13 -15 -1 -41 4 -59 11 -37 15 -314 20 -314 6z m314 -16 c18 -7 45 -12
59 -11 34 4 40 -4 52 -75 17 -100 17 -138 -3 -182 -21 -47 -74 -96 -113 -103
-20 -4 -18 1 16 35 22 22 45 38 52 36 7 -3 15 0 19 6 4 7 3 8 -4 4 -7 -4 -12
-2 -12 3 0 6 4 11 8 11 5 0 14 12 21 26 10 23 9 26 -4 21 -8 -4 -15 -2 -15 4
0 5 7 12 15 15 18 7 19 38 4 85 -23 67 -76 106 -144 106 -22 0 -50 3 -63 7
-14 5 -29 3 -39 -6 -12 -9 -15 -9 -9 -1 5 10 1 11 -16 4 -13 -5 -33 -5 -47 1
-13 5 -26 6 -28 4 -3 -3 -7 -40 -8 -83 -3 -69 -2 -76 11 -59 7 11 17 16 21 12
5 -4 -1 -15 -12 -24 -23 -19 -34 -109 -12 -95 7 4 6 0 -2 -10 -10 -13 -11 -20
-2 -31 9 -10 8 -16 -4 -26 -19 -15 -10 -31 13 -23 16 5 16 5 0 -12 -32 -35
-38 -10 -37 177 0 137 -3 183 -13 190 -24 14 260 9 296 -6z m-190 -37 c5 7 15
7 33 0 17 -6 28 -6 32 0 4 6 12 6 20 2 11 -7 11 -10 0 -17 -19 -12 -78 -11
-72 1 3 6 0 5 -7 -2 -23 -21 0 -31 74 -30 83 1 101 -8 123 -62 16 -36 10 -82
-14 -120 -8 -13 -10 -20 -4 -17 6 4 11 2 11 -4 0 -20 -67 -40 -120 -37 -50 4
-75 -8 -50 -23 7 -5 19 -6 27 -3 7 3 21 2 31 -2 32 -14 50 -12 44 3 -3 10 -1
13 7 8 7 -4 26 5 46 23 19 16 31 32 26 35 -5 3 -1 26 8 51 15 42 15 48 -1 92
-13 37 -14 50 -5 63 10 13 10 13 -5 2 -13 -11 -21 -11 -39 -1 -13 6 -36 12
-52 11 -28 -1 -29 0 -11 19 15 17 20 18 29 6 5 -7 16 -12 24 -9 9 3 11 0 7 -9
-5 -9 -3 -9 6 1 27 31 57 10 52 -36 -1 -16 2 -24 9 -21 7 2 11 11 11 20 -1 9
3 14 8 11 5 -3 6 -13 3 -23 -4 -9 -9 -28 -11 -43 -3 -21 0 -26 11 -21 11 4 13
9 5 18 -7 9 -6 16 3 23 10 8 12 5 11 -16 0 -15 3 -30 8 -33 5 -3 2 -12 -7 -19
-13 -11 -14 -10 -8 6 6 17 5 17 -10 5 -9 -7 -14 -17 -11 -22 3 -5 -2 -19 -10
-31 -23 -32 -19 -48 4 -20 11 13 24 21 29 18 12 -8 -126 -141 -147 -141 -9 0
-23 4 -31 10 -10 7 -16 6 -19 -4 -4 -11 -6 -11 -13 0 -6 10 -9 11 -9 2 0 -19
-37 -16 -44 3 -5 13 -9 14 -21 4 -9 -7 -18 -10 -21 -7 -10 10 6 27 26 27 10 0
20 6 23 13 6 16 -20 41 -28 27 -3 -6 -1 -10 5 -10 6 0 8 -5 5 -10 -4 -6 -11
-8 -16 -5 -5 4 -9 1 -9 -5 0 -6 -5 -8 -11 -5 -7 5 -3 15 10 29 26 28 28 45 2
22 -12 -11 -21 -14 -26 -7 -3 6 1 11 10 11 11 0 15 5 11 15 -3 8 -9 22 -12 30
-3 8 -1 15 6 15 6 0 8 -4 5 -10 -3 -5 -1 -10 5 -10 6 0 8 -6 4 -12 -4 -7 -4
-10 1 -6 4 4 9 29 11 55 l3 48 -19 -25 c-11 -14 -20 -21 -20 -17 0 5 9 21 21
35 12 16 16 28 10 30 -6 2 -9 8 -5 13 3 5 7 24 9 41 4 30 4 30 -15 13 -24 -22
-26 -8 -4 24 12 16 19 19 24 11 5 -8 10 -9 14 -1z"/>
<path d="M4710 489 c0 -3 14 -18 32 -35 18 -16 26 -21 19 -12 -7 9 -10 22 -7
27 4 5 1 13 -5 17 -8 4 -9 3 -5 -4 9 -16 -7 -15 -22 0 -7 7 -12 10 -12 7z"/>
<path d="M4694 168 l-19 -23 23 19 c12 11 22 21 22 23 0 8 -8 2 -26 -19z"/>
<path d="M4480 407 c-3 -3 -5 -36 -4 -74 1 -37 -2 -75 -7 -84 -15 -29 21 -49
87 -49 32 0 66 5 74 10 12 8 12 10 1 10 -8 0 -6 6 7 18 25 20 31 35 17 42 -5
3 -10 -4 -10 -15 0 -14 -10 -23 -35 -31 -33 -11 -34 -12 -10 -17 14 -2 -5 -5
-42 -6 l-67 -1 -3 101 c-2 55 -5 98 -8 96z"/>
<path d="M4653 351 c0 -11 5 -18 9 -15 4 3 5 11 1 19 -7 21 -12 19 -10 -4z"/>
<path d="M4646 312 c-3 -5 1 -9 9 -9 8 0 12 4 9 9 -3 4 -7 8 -9 8 -2 0 -6 -4
-9 -8z"/>
<path d="M4500 260 c0 -5 5 -10 11 -10 5 0 7 5 4 10 -3 6 -8 10 -11 10 -2 0
-4 -4 -4 -10z"/>
<path d="M4500 230 c0 -6 7 -10 15 -10 8 0 15 2 15 4 0 2 -7 6 -15 10 -8 3
-15 1 -15 -4z"/>
<path d="M4778 511 c8 -4 14 -12 15 -17 1 -5 8 -9 15 -11 10 -1 8 4 -4 18 -9
10 -22 19 -28 19 -6 0 -5 -4 2 -9z"/>
<path d="M1549 443 c-17 -51 -34 -78 -71 -116 -27 -27 -54 -47 -61 -44 -14 5
-16 -120 -3 -141 5 -8 0 -12 -14 -12 -12 0 -18 5 -15 10 3 6 2 10 -4 10 -5 0
-13 -4 -16 -10 -3 -5 -22 -10 -41 -10 -19 0 -34 -4 -34 -10 0 -6 32 -10 75
-10 68 0 91 9 65 25 -5 3 -10 34 -10 68 0 58 2 64 28 79 48 29 82 74 113 148
33 81 32 80 20 80 -5 0 -19 -30 -32 -67z"/>
<path d="M3159 472 c5 -34 6 -35 9 -8 2 16 0 32 -5 37 -5 5 -7 -7 -4 -29z"/>
<path d="M3956 495 c-11 -8 -16 -15 -12 -15 5 0 3 -7 -4 -15 -22 -26 -6 -16
23 15 30 31 26 40 -7 15z"/>
<path d="M4326 501 c-4 -5 -2 -12 3 -15 5 -4 12 -2 15 3 4 5 2 12 -3 15 -5 4
-12 2 -15 -3z"/>
<path d="M4949 493 c-13 -16 -12 -17 4 -4 16 13 21 21 13 21 -2 0 -10 -8 -17
-17z"/>
<path d="M177 493 c-12 -11 -8 -23 8 -23 8 0 15 -4 15 -9 0 -15 32 -22 46 -10
12 10 13 9 8 -5 -4 -11 -1 -16 10 -16 28 0 17 28 -16 40 -18 7 -36 12 -40 11
-5 0 -8 4 -8 9 0 11 -13 13 -23 3z m47 -29 c3 -8 2 -12 -4 -9 -6 3 -10 10 -10
16 0 14 7 11 14 -7z"/>
<path d="M1198 492 c-20 -4 -24 -17 -8 -27 6 -4 8 -11 4 -16 -8 -13 35 -79 52
-79 18 0 17 20 -1 44 -8 11 -15 29 -15 40 0 29 -12 43 -32 38z"/>
<path d="M1735 453 c-31 -31 -60 -74 -82 -120 -41 -89 -43 -107 -8 -91 16 7
25 19 25 34 0 13 5 26 10 29 15 9 12 27 -2 20 -7 -4 -2 3 11 14 18 17 21 24
12 35 -9 11 -9 16 0 22 8 4 9 3 5 -4 -4 -7 -2 -12 3 -12 6 0 11 6 11 14 0 8 7
16 15 20 8 3 15 10 15 16 0 6 7 18 15 26 8 9 15 12 15 8 0 -3 7 -1 15 6 12 10
15 10 15 0 0 -7 7 -10 16 -6 8 3 13 2 10 -3 -3 -4 2 -17 10 -27 9 -10 12 -13
8 -5 -4 9 -3 12 4 7 6 -4 9 -13 5 -21 -6 -16 22 -21 31 -6 7 11 -78 91 -97 91
-7 0 -35 -21 -62 -47z"/>
<path d="M2142 421 c1 -77 9 -104 32 -95 9 3 13 30 14 83 2 76 1 79 -22 83
-24 5 -24 4 -24 -71z m25 37 c0 -7 4 -22 9 -33 7 -17 6 -18 -8 -5 -13 12 -15
26 -9 48 3 7 8 0 8 -10z m4 -65 c13 -16 12 -17 -3 -4 -17 13 -22 21 -14 21 2
0 10 -8 17 -17z"/>
<path d="M3997 448 c-51 -51 -102 -118 -77 -103 7 4 6 -2 -3 -16 -15 -24 -39
-95 -52 -154 -6 -29 -6 -29 14 -11 12 11 21 15 21 9 0 -16 -38 -46 -49 -39 -5
4 -12 2 -16 -4 -4 -6 -10 -8 -15 -5 -5 3 -11 1 -14 -4 -4 -6 29 -11 80 -13 47
-2 88 0 91 5 2 4 -1 6 -7 5 -21 -5 -27 36 -14 99 15 72 56 159 73 155 7 -1 10
2 6 8 -4 6 -1 17 5 25 15 18 34 20 24 3 -4 -7 -3 -10 1 -5 9 8 45 -20 45 -36
0 -6 -10 -2 -22 9 -12 10 -18 13 -14 7 4 -7 2 -13 -3 -13 -6 0 -3 -8 7 -18 15
-16 18 -16 28 -3 10 12 14 10 27 -15 17 -33 44 -124 50 -169 3 -25 4 -23 5 10
3 68 -56 206 -102 243 -25 19 -25 20 -6 37 18 16 20 16 20 2 0 -9 6 -20 13
-24 6 -4 12 -15 12 -23 0 -9 8 -14 19 -13 12 1 15 -2 8 -9 -15 -15 15 -59 34
-51 8 3 14 0 14 -6 0 -6 -4 -11 -10 -11 -5 0 -10 -7 -10 -16 0 -9 5 -12 12 -8
7 5 8 3 3 -6 -4 -7 -2 -16 6 -21 10 -6 10 -9 2 -9 -7 0 -10 -7 -7 -15 4 -8 10
-13 14 -10 4 2 6 -15 4 -40 -3 -26 1 -47 8 -51 6 -4 8 -3 4 4 -3 6 3 13 14 17
23 7 23 5 6 70 -8 28 -19 49 -26 47 -8 -2 -8 3 -2 14 11 19 -7 64 -25 64 -6 0
-10 8 -9 17 4 23 -99 123 -126 123 -5 0 -32 -24 -61 -52z m66 6 c-16 -13 -24
-24 -19 -24 6 0 -2 -12 -16 -27 -51 -55 -106 -208 -94 -259 5 -18 3 -22 -8
-18 -11 4 -14 17 -9 52 3 26 6 56 7 67 0 12 9 33 19 48 11 17 13 27 6 27 -7 0
-4 9 7 22 18 20 18 21 1 15 -11 -4 -16 -3 -12 3 3 6 12 10 19 10 7 0 21 9 31
20 19 22 7 28 -14 8 -10 -11 -11 -9 -5 5 4 12 13 17 25 14 11 -3 22 0 26 5 3
6 1 8 -5 4 -6 -3 -13 -2 -17 4 -3 5 1 10 10 10 10 0 13 5 9 12 -4 7 -3 8 5 4
14 -9 43 12 35 25 -3 5 2 6 11 3 13 -5 10 -11 -12 -30z m177 -234 c0 -5 -5
-10 -11 -10 -5 0 -7 5 -4 10 3 6 8 10 11 10 2 0 4 -4 4 -10z"/>
<path d="M650 481 c0 -7 -4 -9 -10 -6 -5 3 -10 2 -10 -4 0 -5 4 -12 9 -15 10
-6 25 24 16 32 -3 3 -5 0 -5 -7z"/>
<path d="M1499 480 c-9 -67 -49 -126 -103 -150 -31 -14 -43 -16 -57 -7 -28 17
-48 -6 -25 -28 11 -11 16 -12 16 -4 0 7 3 9 6 6 4 -3 16 -2 27 4 15 9 18 8 12
-2 -6 -9 -3 -10 11 -5 10 4 26 9 34 10 8 2 20 12 25 23 6 11 15 18 22 16 6 -2
15 1 19 8 4 7 3 9 -3 6 -6 -4 -13 0 -17 8 -4 10 1 14 16 12 11 -1 23 4 26 12
2 8 0 11 -5 8 -5 -3 -10 0 -10 8 0 8 5 13 11 12 6 -1 10 4 8 11 -1 8 2 11 7 8
5 -4 12 -2 16 3 3 5 -3 15 -12 21 -17 11 -17 11 0 6 11 -3 17 0 17 9 0 17 -39
21 -41 5z"/>
<path d="M1930 486 c0 -2 8 -10 18 -17 15 -13 16 -12 3 4 -13 16 -21 21 -21
13z"/>
<path d="M2740 462 c0 -5 7 -9 15 -9 8 0 12 4 9 9 -3 4 -9 8 -15 8 -5 0 -9 -4
-9 -8z"/>
<path d="M4340 460 c0 -5 5 -10 11 -10 5 0 7 5 4 10 -3 6 -8 10 -11 10 -2 0
-4 -4 -4 -10z"/>
<path d="M284 428 c-4 -6 -2 -14 4 -16 7 -2 10 -7 7 -12 -7 -11 48 -50 68 -50
22 0 32 21 16 31 -9 6 -19 3 -28 -9 -12 -15 -13 -15 -8 7 4 17 0 29 -16 42
-26 22 -33 23 -43 7z m36 -28 c9 -16 8 -18 -5 -14 -9 4 -13 9 -11 12 3 3 0 12
-7 20 -9 13 -9 14 0 8 7 -4 18 -16 23 -26z"/>
<path d="M4345 431 c4 -8 2 -17 -6 -22 -9 -6 -10 -9 -2 -9 19 0 27 21 13 33
-10 9 -11 9 -5 -2z"/>
<path d="M245 414 c9 -9 19 -13 23 -10 3 4 0 11 -8 16 -24 15 -33 11 -15 -6z"/>
<path d="M1377 409 c7 -7 15 -10 18 -7 3 3 -2 9 -12 12 -14 6 -15 5 -6 -5z"/>
<path d="M3823 394 c0 -32 29 -65 43 -50 20 22 24 35 13 42 -7 4 -9 3 -5 -4 3
-6 2 -13 -4 -17 -5 -3 -10 0 -10 7 0 9 -3 9 -10 -2 -5 -8 -10 -13 -11 -10 0 3
-2 15 -3 27 -4 33 -13 38 -13 7z"/>
<path d="M2732 390 c0 -14 2 -19 5 -12 2 6 2 18 0 25 -3 6 -5 1 -5 -13z"/>
<path d="M1557 387 c-3 -8 1 -14 8 -14 7 0 11 6 8 14 -3 7 -6 13 -8 13 -2 0
-5 -6 -8 -13z"/>
<path d="M1770 368 l-22 -33 25 29 c16 18 29 26 37 21 9 -5 11 -4 6 3 -12 19
-23 14 -46 -20z"/>
<path d="M1887 394 c-12 -12 -8 -26 6 -21 10 4 13 -2 10 -18 -3 -15 2 -27 17
-38 14 -10 18 -17 10 -22 -7 -4 -8 -11 -1 -18 10 -13 11 -16 11 -53 0 -17 4
-23 13 -18 9 6 9 4 1 -7 -6 -8 -8 -25 -4 -39 4 -18 8 -21 14 -11 7 11 10 11
17 0 4 -7 11 -11 14 -7 10 9 -24 131 -38 140 -9 6 -9 8 0 8 8 0 2 20 -15 52
-27 51 -42 65 -55 52z"/>
<path d="M1153 375 c-8 -9 -9 -16 -3 -20 6 -4 8 -10 5 -15 -3 -4 5 -5 17 -2
19 5 20 7 5 10 -12 3 -16 9 -12 23 7 22 5 23 -12 4z"/>
<path d="M4210 380 c0 -3 4 -10 9 -15 10 -11 34 -82 55 -165 12 -46 13 -57 1
-69 -10 -10 -20 -11 -42 -3 -23 8 -34 6 -51 -7 -21 -15 -18 -16 62 -16 l84 0
-19 35 c-10 19 -29 73 -42 120 -13 47 -28 94 -32 104 -6 14 -5 17 3 12 7 -4
12 -3 12 3 0 5 -9 9 -20 8 -11 -1 -20 -4 -20 -7z"/>
<path d="M136 343 c29 -45 64 -67 60 -38 -2 13 -61 65 -74 65 -2 0 4 -12 14
-27z"/>
<path d="M1252 355 c-13 -16 -9 -19 22 -15 11 1 15 -3 12 -9 -8 -12 6 -15 17
-4 7 6 -21 43 -32 43 -3 -1 -12 -7 -19 -15z"/>
<path d="M2723 343 c0 -9 4 -10 14 -2 7 6 13 12 13 14 0 1 -6 2 -13 2 -8 0
-14 -6 -14 -14z"/>
<path d="M3872 308 c-10 -29 -25 -77 -32 -105 -6 -29 -16 -51 -20 -48 -5 3
-11 1 -15 -5 -4 -6 -11 -7 -17 -4 -7 4 -8 2 -4 -5 4 -6 13 -8 19 -4 7 4 16 8
22 8 5 0 13 11 17 25 4 14 18 61 32 105 28 92 27 111 -2 33z"/>
<path d="M4250 350 c0 -5 5 -10 11 -10 5 0 7 5 4 10 -3 6 -8 10 -11 10 -2 0
-4 -4 -4 -10z"/>
<path d="M1779 313 c-12 -16 -12 -17 2 -6 9 7 20 9 24 5 5 -4 5 -1 1 6 -9 16
-11 15 -27 -5z"/>
<path d="M4110 320 c0 -5 5 -10 11 -10 5 0 7 5 4 10 -3 6 -8 10 -11 10 -2 0
-4 -4 -4 -10z"/>
<path d="M1494 299 c-14 -15 -15 -20 -4 -17 8 2 14 -3 12 -10 -1 -8 2 -11 8
-7 8 5 8 11 1 19 -7 9 -7 16 1 24 7 7 10 12 7 12 -3 0 -14 -9 -25 -21z"/>
<path d="M2768 305 c6 -11 21 -29 34 -40 22 -19 22 -19 -2 10 -40 48 -43 51
-32 30z"/>
<path d="M4075 308 c-11 -5 -31 -24 -44 -41 l-25 -32 30 28 30 27 27 -28 c26
-27 37 -49 18 -38 -5 3 -11 -1 -15 -9 -3 -8 -12 -12 -21 -9 -8 3 -12 10 -9 15
3 5 10 6 16 3 6 -4 6 1 -1 14 -7 13 -17 19 -26 16 -22 -9 -18 -42 5 -49 11 -3
20 -10 20 -15 0 -14 -32 -4 -49 16 -9 10 -23 20 -31 22 -8 2 2 -14 23 -35 l38
-38 39 41 c26 28 42 38 49 31 7 -7 8 -3 4 12 -5 18 -8 19 -21 9 -13 -11 -14
-10 -4 9 9 16 9 24 0 29 -7 4 -8 3 -4 -4 8 -13 -6 -16 -18 -4 -4 4 -12 8 -17
8 -5 1 -12 2 -16 3 -4 0 2 8 13 16 22 17 18 18 -11 3z m36 -45 c13 -16 12 -17
-3 -4 -10 7 -18 15 -18 17 0 8 8 3 21 -13z"/>
<path d="M204 293 c2 -9 9 -19 16 -21 9 -3 10 0 4 9 -7 12 -5 12 9 0 11 -8 17
-9 17 -3 0 10 -30 32 -43 32 -3 0 -4 -8 -3 -17z"/>
<path d="M1196 299 c3 -5 9 -7 14 -4 4 3 11 0 13 -5 3 -6 4 -5 3 1 -1 7 -10
13 -19 15 -9 1 -15 -2 -11 -7z"/>
<path d="M1736 297 c3 -10 9 -15 12 -12 3 3 0 11 -7 18 -10 9 -11 8 -5 -6z"/>
<path d="M1850 295 c-13 -16 -12 -17 44 -80 4 -5 4 0 -2 11 -6 12 -9 24 -7 28
3 3 2 4 -2 1 -8 -6 -33 14 -33 27 0 5 4 7 8 4 5 -3 9 1 9 9 0 19 -2 19 -17 0z"/>
<path d="M3211 297 c-8 -10 -7 -14 2 -14 8 0 14 6 14 14 0 7 -1 13 -2 13 -2 0
-8 -6 -14 -13z"/>
<path d="M4008 299 c10 -13 10 -18 -1 -28 -8 -6 -18 -7 -22 -3 -5 4 -5 1 -1
-6 6 -11 13 -8 32 9 13 12 24 25 24 27 0 3 -3 2 -7 -1 -3 -4 -13 -1 -22 6 -14
10 -14 10 -3 -4z"/>
<path d="M1776 281 c-10 -11 -26 -18 -37 -16 -11 2 -17 0 -14 -6 4 -5 1 -9 -6
-9 -7 0 -9 -3 -6 -6 4 -4 13 -1 22 6 8 7 15 10 15 6 0 -3 12 -1 26 4 29 11 63
-2 60 -22 -1 -7 -9 -24 -19 -38 -12 -18 -20 -21 -28 -13 -8 8 -6 14 10 22 18
10 19 15 10 32 -8 16 -13 18 -25 8 -21 -18 -17 -31 9 -24 22 7 22 7 2 -9 -17
-13 -21 -13 -31 -1 -6 8 -17 15 -24 15 -7 0 3 -17 21 -39 l34 -38 37 35 38 36
-27 28 c-15 15 -34 28 -42 28 -14 0 -14 1 -1 10 8 5 10 10 4 10 -6 0 -19 -9
-28 -19z"/>
<path d="M2021 280 c14 -31 19 -36 19 -24 0 6 -7 19 -16 30 -14 18 -14 18 -3
-6z"/>
<path d="M4351 284 c0 -11 3 -14 6 -6 3 7 2 16 -1 19 -3 4 -6 -2 -5 -13z"/>
<path d="M1353 283 c-23 -8 -14 -26 10 -20 l22 6 -21 -18 c-16 -13 -22 -29
-22 -64 -1 -51 6 -57 31 -29 12 13 16 32 14 65 -4 50 -14 68 -34 60z m23 -81
c0 -10 -5 -19 -11 -19 -6 0 -11 9 -11 19 0 10 5 18 11 18 6 0 11 -8 11 -18z"/>
<path d="M2726 273 c-6 -14 -5 -15 5 -6 7 7 10 15 7 18 -3 3 -9 -2 -12 -12z"/>
<path d="M265 270 c3 -5 14 -10 23 -10 15 0 15 2 2 10 -20 13 -33 13 -25 0z"/>
<path d="M1236 272 c-3 -5 1 -9 9 -9 8 0 15 4 15 9 0 4 -4 8 -9 8 -6 0 -12 -4
-15 -8z"/>
<path d="M3830 259 c-7 -11 -10 -23 -7 -25 2 -2 9 7 15 21 14 30 7 33 -8 4z"/>
<path d="M2485 240 c-3 -5 -1 -10 4 -10 6 0 11 5 11 10 0 6 -2 10 -4 10 -3 0
-8 -4 -11 -10z"/>
<path d="M2438 233 c7 -3 16 -2 19 1 4 3 -2 6 -13 5 -11 0 -14 -3 -6 -6z"/>
<path d="M2318 223 c7 -3 16 -2 19 1 4 3 -2 6 -13 5 -11 0 -14 -3 -6 -6z"/>
<path d="M2363 223 c9 -2 23 -2 30 0 6 3 -1 5 -18 5 -16 0 -22 -2 -12 -5z"/>
<path d="M2510 217 c0 -18 -60 -88 -70 -82 -5 3 -11 2 -13 -2 -3 -5 -73 -6
-157 -3 -84 3 -154 2 -157 -3 -2 -4 -9 -5 -14 -2 -5 4 -9 1 -9 -4 0 -7 60 -11
179 -11 175 0 180 1 208 24 29 24 60 96 42 96 -5 0 -9 -6 -9 -13z"/>
<path d="M2543 215 c0 -8 4 -12 9 -9 5 3 6 10 3 15 -9 13 -12 11 -12 -6z"/>
<path d="M3295 219 c-4 -6 -5 -12 -2 -15 2 -3 7 2 10 11 7 17 1 20 -8 4z"/>
<path d="M173 195 c0 -8 3 -13 5 -10 3 3 15 -3 26 -12 15 -13 14 -10 -3 10
-29 32 -28 31 -28 12z"/>
<path d="M1703 187 c-1 -11 -1 -18 0 -16 2 2 8 11 15 20 9 12 9 16 -1 16 -7 0
-14 -9 -14 -20z"/>
<path d="M1852 187 c-31 -33 -27 -42 4 -10 14 14 23 27 21 29 -2 2 -13 -6 -25
-19z"/>
<path d="M2293 203 c37 -2 96 -2 130 0 34 2 4 3 -68 3 -71 0 -99 -1 -62 -3z"/>
<path d="M3974 202 c3 -5 1 -12 -5 -14 -7 -2 -10 -9 -8 -16 3 -8 9 -5 16 7 9
15 10 22 1 27 -6 4 -8 3 -4 -4z"/>
<path d="M4125 200 c-3 -6 1 -7 9 -4 18 7 21 14 7 14 -6 0 -13 -4 -16 -10z"/>
<path d="M4770 180 c-12 -16 -19 -30 -16 -30 2 0 14 14 26 30 12 17 19 30 16
30 -2 0 -14 -13 -26 -30z"/>
<path d="M2040 181 c0 -6 4 -11 10 -11 5 0 7 -6 4 -13 -3 -8 3 -20 12 -28 10
-8 15 -9 11 -2 -4 6 -4 13 0 16 5 2 2 2 -6 0 -8 -2 -11 2 -8 11 3 8 -1 20 -9
26 -10 9 -14 9 -14 1z"/>
<path d="M2317 180 c-44 -3 -76 -9 -75 -15 3 -12 23 -12 58 0 21 7 23 6 12 -7
-10 -13 -7 -15 25 -12 21 1 51 7 66 13 38 15 45 14 22 -3 -18 -13 -18 -14 7
-9 15 3 32 11 38 18 14 17 -43 22 -153 15z"/>
<path d="M2526 173 c-6 -14 -5 -15 5 -6 7 7 10 15 7 18 -3 3 -9 -2 -12 -12z"/>
<path d="M3324 168 c-4 -7 -4 -10 1 -6 4 4 15 2 24 -5 14 -11 14 -10 2 6 -16
20 -18 21 -27 5z"/>
<path d="M4091 160 c-14 -12 -18 -20 -10 -20 8 0 20 9 27 20 15 25 13 25 -17
0z"/>
<path d="M328 163 c7 -3 16 -2 19 1 4 3 -2 6 -13 5 -11 0 -14 -3 -6 -6z"/>
<path d="M4250 160 c-11 -7 -11 -10 -2 -10 7 0 10 -4 7 -10 -3 -5 -1 -10 4
-10 6 0 11 9 11 20 0 23 0 23 -20 10z"/>
<path d="M4324 158 c-5 -7 -2 -8 6 -3 10 6 12 3 8 -13 -7 -27 -2 -28 11 -3 8
14 7 20 -4 25 -8 3 -17 0 -21 -6z"/>
<path d="M4775 150 c-10 -11 -22 -17 -28 -13 -6 4 -7 1 -2 -6 5 -9 13 -7 31
10 13 12 24 24 24 26 0 7 -8 2 -25 -17z"/>
<path d="M1054 128 c-23 -27 -24 -29 -3 -10 14 12 28 20 31 17 2 -3 5 2 5 10
0 19 2 20 -33 -17z"/>
<path d="M1525 149 c-4 -6 -5 -12 -2 -15 2 -3 7 2 10 11 7 17 1 20 -8 4z"/>
<path d="M3734 128 l-29 -33 33 29 c17 17 32 31 32 33 0 8 -8 1 -36 -29z"/>
<path d="M2890 136 c7 -7 13 -7 20 0 6 6 3 10 -10 10 -13 0 -16 -4 -10 -10z"/>
<path d="M4150 140 c0 -5 5 -10 11 -10 5 0 7 5 4 10 -3 6 -8 10 -11 10 -2 0
-4 -4 -4 -10z"/>
<path d="M675 130 c-4 -6 1 -7 11 -3 13 5 15 3 9 -7 -5 -9 -4 -11 4 -6 6 4 9
12 6 17 -8 12 -22 12 -30 -1z"/>
<path d="M317 109 c7 -7 15 -10 18 -7 3 3 -2 9 -12 12 -14 6 -15 5 -6 -5z"/>
<path d="M1766 108 c3 -5 10 -6 15 -3 13 9 11 12 -6 12 -8 0 -12 -4 -9 -9z"/>
<path d="M4679 103 c-13 -16 -12 -17 4 -4 16 13 21 21 13 21 -2 0 -10 -8 -17
-17z"/>
<path d="M878 63 c7 -3 16 -2 19 1 4 3 -2 6 -13 5 -11 0 -14 -3 -6 -6z"/>
</g>
</svg>
