<?xml version="1.0" standalone="no"?>
<!DOCTYPE svg PUBLIC "-//W3C//DTD SVG 20010904//EN"
 "http://www.w3.org/TR/2001/REC-SVG-20010904/DTD/svg10.dtd">
<svg version="1.0" xmlns="http://www.w3.org/2000/svg"
 width="600.000000pt" height="282.000000pt" viewBox="0 0 600.000000 282.000000"
 preserveAspectRatio="xMidYMid meet">
<g transform="translate(0.000000,282.000000) scale(0.100000,-0.100000)"
fill="#000000" stroke="none">
<path d="M782 2342 c-17 -17 -43 -102 -98 -312 l-18 -66 -125 -24 c-121 -24
-126 -26 -149 -60 -22 -32 -23 -43 -20 -123 2 -48 9 -92 15 -98 10 -10 115 0
190 18 21 5 21 4 7 -44 -44 -144 -84 -352 -84 -439 0 -45 7 -73 26 -112 47
-95 126 -134 269 -134 150 0 251 42 366 153 l57 55 11 -49 c16 -69 45 -106
108 -134 70 -32 155 -33 234 -4 88 33 225 168 204 201 -3 5 0 8 7 5 9 -4 12
-19 10 -48 -5 -60 32 -125 88 -156 93 -52 223 -24 325 70 60 55 105 112 110
140 4 20 3 20 -14 5 -10 -9 -21 -13 -24 -9 -4 3 -7 1 -7 -5 0 -6 -10 -20 -22
-32 -12 -11 -18 -20 -14 -20 4 0 -7 -12 -26 -27 -18 -15 -37 -33 -41 -40 -4
-7 -15 -13 -23 -13 -8 0 -17 -6 -20 -14 -3 -8 -12 -17 -20 -20 -9 -4 -12 -2
-8 5 3 6 -6 3 -22 -7 -20 -14 -46 -19 -89 -18 -60 0 -65 3 -124 54 -9 8 -26
41 -36 74 -11 32 -26 61 -33 63 -9 4 -10 9 -1 19 28 34 -1 9 -49 -42 -29 -30
-47 -52 -40 -48 9 6 9 3 -1 -9 -8 -10 -16 -15 -18 -13 -3 3 -16 -6 -30 -20
-13 -13 -29 -21 -35 -18 -7 4 -8 2 -4 -4 8 -13 -46 -38 -115 -53 -31 -7 -60
-6 -90 1 -24 6 -50 12 -57 14 -23 5 -69 55 -77 83 -10 42 -44 83 -68 83 -13 0
-50 -25 -87 -58 -110 -98 -262 -146 -389 -124 -72 13 -134 40 -124 55 4 7 0 8
-13 3 -10 -4 -15 -4 -12 0 4 3 -4 24 -18 45 -13 21 -22 39 -20 39 3 0 1 14 -4
30 -5 17 -6 30 -2 30 4 0 5 25 4 55 -2 31 0 63 4 73 4 9 8 28 10 42 4 39 53
229 64 251 8 14 7 19 -2 19 -9 0 -10 3 -2 8 13 8 14 42 2 42 -5 0 -6 5 -3 10
4 6 3 10 -2 9 -4 -1 -16 1 -26 6 -10 4 -50 3 -89 -3 -86 -13 -88 -11 -88 70 0
65 17 111 37 104 8 -3 12 -2 9 3 -6 8 10 12 129 32 66 10 107 27 99 41 -3 4
-1 8 4 8 5 0 13 10 17 23 4 12 8 24 9 27 1 3 8 25 15 50 6 25 15 52 18 60 3 8
5 22 4 32 -1 9 3 19 9 23 5 3 10 17 10 31 0 13 5 24 10 24 6 0 10 6 8 13 -1 6
1 24 5 39 11 43 61 50 184 24 7 -1 16 -6 20 -11 4 -4 3 -5 -3 -2 -6 3 -11 0
-11 -7 0 -8 10 -12 24 -10 18 2 23 -3 23 -19 0 -36 -25 -108 -35 -100 -4 4 -5
2 -1 -4 4 -7 1 -23 -5 -35 -7 -13 -14 -33 -16 -45 -2 -13 -5 -35 -7 -50 -4
-33 20 -87 35 -77 33 20 306 -5 324 -30 21 -28 -11 -186 -37 -186 -5 0 -6 -5
-2 -12 5 -8 -10 -9 -57 -4 -35 3 -125 9 -199 12 -133 6 -135 6 -156 -17 -18
-20 -48 -92 -61 -146 -6 -27 -10 -40 -27 -93 -9 -30 -19 -73 -22 -94 -3 -22
-7 -44 -10 -48 -10 -16 9 -99 30 -131 34 -50 79 -68 160 -63 37 2 71 8 75 13
3 6 14 9 24 7 9 -1 24 4 31 12 8 8 18 14 22 14 4 0 23 12 43 27 20 16 41 26
46 25 6 -2 7 0 3 4 -4 4 4 20 17 36 14 16 25 34 25 39 0 6 5 7 11 4 6 -4 9 -1
7 6 -1 8 12 39 30 70 17 31 32 62 32 68 0 7 5 9 12 5 8 -5 9 -2 5 10 -5 11 -3
15 4 10 7 -4 10 -1 7 7 -3 8 14 32 36 53 23 22 32 33 21 25 -18 -13 -19 -13
-6 4 7 9 20 17 27 17 8 0 14 4 14 9 0 19 49 63 61 55 7 -4 9 -3 5 4 -8 14 50
55 65 46 8 -4 9 -3 5 4 -4 7 -2 12 4 12 6 0 9 4 5 9 -3 6 4 8 15 6 11 -2 20 0
20 5 0 5 8 9 18 9 9 -1 36 6 59 15 126 47 427 11 431 -52 1 -20 -11 -68 -46
-177 -14 -44 -27 -87 -28 -95 -1 -8 -9 -40 -17 -70 -8 -30 -13 -58 -11 -61 2
-4 -1 -9 -7 -11 -7 -2 -12 -32 -13 -72 -1 -65 0 -69 32 -97 37 -33 44 -34 100
-15 22 8 44 11 48 8 4 -4 4 -1 0 6 -5 8 3 16 23 23 17 6 31 14 31 18 0 4 7 16
16 27 8 10 13 13 9 7 -14 -28 4 -11 24 23 12 19 26 32 31 29 6 -4 9 -3 8 2 -4
15 13 53 48 104 19 28 37 62 40 75 3 13 10 24 16 24 5 0 7 4 3 10 -3 5 -2 17
3 27 28 54 90 247 105 326 11 60 135 61 210 1 33 -26 35 -30 23 -53 -20 -40
-27 -79 -16 -86 6 -4 7 -11 4 -17 -4 -6 -2 -8 4 -4 6 3 13 2 17 -4 8 -12 56
11 86 43 12 12 19 15 15 7 -4 -8 2 -4 14 9 11 14 29 25 40 26 10 1 25 7 33 13
19 16 108 32 147 27 17 -2 44 -12 58 -22 15 -9 32 -18 37 -18 6 0 9 -8 7 -18
-2 -9 2 -17 8 -17 6 0 8 -4 5 -10 -3 -5 -2 -10 2 -10 37 0 43 -213 9 -315 -10
-32 -21 -56 -47 -110 -35 -71 -44 -116 -21 -107 9 3 13 1 9 -4 -3 -6 15 -10
43 -10 27 -1 48 2 45 5 -3 6 15 11 57 14 9 1 15 4 12 8 -4 7 22 20 31 16 3 -1
14 13 25 31 12 20 25 30 32 26 6 -4 8 -3 5 3 -4 5 7 23 23 38 17 16 30 39 30
52 0 13 4 23 8 23 5 0 9 6 9 13 0 7 10 34 23 60 20 39 26 45 38 34 13 -10 14
-9 4 9 -10 18 -6 27 23 60 20 22 38 47 41 57 3 9 9 17 13 17 4 0 27 18 52 40
24 22 56 45 72 51 15 6 27 15 27 20 0 5 8 6 18 2 9 -3 14 -2 9 2 -9 11 46 30
142 50 52 11 101 14 165 10 134 -9 196 -30 202 -67 1 -9 5 -26 9 -38 4 -12 3
-20 -2 -17 -5 3 -8 -7 -7 -21 1 -15 -2 -31 -6 -37 -6 -8 -20 -50 -24 -75 -1
-3 -5 -11 -9 -17 -5 -7 -6 -13 -2 -13 3 0 0 -10 -7 -22 -6 -13 -12 -30 -13
-38 -1 -8 -11 -45 -23 -82 -11 -36 -24 -93 -28 -126 -6 -56 -5 -61 22 -91 38
-41 78 -46 140 -16 52 24 136 99 125 111 -3 4 -1 4 5 1 6 -3 16 9 23 28 7 19
17 34 24 32 6 -1 11 3 12 9 0 15 38 88 48 92 4 2 7 10 7 18 0 9 4 12 10 9 5
-3 7 0 5 8 -3 7 4 24 16 38 11 13 32 46 45 72 15 29 29 45 36 41 6 -4 8 -3 4
4 -8 14 48 103 74 117 10 5 20 15 22 20 2 6 7 9 12 7 5 -2 6 4 2 13 -4 11 -2
15 6 13 7 -3 21 6 31 19 10 13 27 23 37 23 10 0 20 6 23 14 14 37 180 63 255
40 73 -22 77 -27 62 -63 -7 -17 -16 -28 -21 -25 -5 3 -6 -1 -3 -9 3 -8 -1 -21
-8 -28 -25 -22 6 -163 44 -201 19 -19 28 -20 125 -14 85 6 109 5 127 -8 22
-14 23 -18 14 -63 -5 -26 -12 -57 -14 -68 -2 -11 -13 -35 -24 -52 -16 -28 -23
-31 -42 -24 -104 38 -157 10 -161 -86 0 -7 -4 -13 -9 -13 -5 0 -6 -4 -3 -10 3
-5 0 -20 -7 -32 -7 -13 -11 -27 -10 -32 2 -5 -4 -6 -13 -2 -9 3 -13 2 -10 -3
9 -15 -42 -60 -104 -91 -160 -82 -358 -46 -391 71 -13 43 -13 136 -1 144 5 3
12 19 16 35 4 16 11 33 17 36 7 5 8 2 3 -6 -5 -9 -4 -11 4 -6 6 4 9 11 6 16
-8 12 91 87 133 101 50 16 82 38 82 56 0 10 6 13 17 9 16 -6 16 -6 0 12 -19
20 -23 37 -7 27 6 -3 1 10 -11 29 -11 20 -22 42 -23 50 -3 23 -39 67 -63 76
-24 10 -103 -26 -103 -47 0 -15 -50 -54 -60 -48 -4 3 -7 -3 -6 -13 0 -9 -5
-16 -12 -14 -8 1 -11 -2 -7 -8 8 -13 -14 -42 -25 -35 -5 3 -11 -4 -15 -15 -3
-11 -11 -20 -16 -20 -5 0 -8 -6 -6 -12 1 -7 -3 -12 -10 -11 -6 1 -10 -5 -8
-15 1 -9 -6 -27 -17 -39 -12 -12 -17 -27 -13 -34 5 -7 4 -10 -2 -6 -6 4 -15 1
-21 -6 -10 -12 -12 -18 -12 -35 0 -15 -37 -52 -44 -45 -3 3 -6 -2 -6 -13 -1
-23 -23 -54 -39 -54 -7 0 -10 -4 -6 -9 3 -6 -5 -20 -17 -32 -13 -12 -16 -18
-8 -14 13 8 13 7 0 -11 -31 -40 -93 -93 -103 -87 -6 3 -7 1 -3 -5 4 -7 2 -12
-5 -12 -7 0 -20 -7 -29 -15 -26 -23 -121 -44 -167 -36 -34 7 -112 51 -89 51 4
0 0 13 -9 30 -8 16 -15 38 -15 50 0 14 -4 19 -12 14 -7 -5 -9 -2 -6 7 3 8 -1
20 -8 27 -12 11 -14 5 -14 -35 0 -35 8 -62 29 -99 40 -69 80 -88 175 -82 90 6
156 39 230 112 49 50 87 103 261 371 59 90 150 191 193 214 21 11 24 9 52 -51
16 -35 32 -75 35 -89 6 -24 3 -28 -41 -43 -67 -23 -126 -60 -164 -102 -104
-119 -106 -278 -6 -361 48 -39 96 -53 183 -53 201 0 356 116 380 285 l6 47 46
-8 c25 -4 64 -8 86 -8 39 -1 41 1 68 55 20 41 30 78 34 132 5 71 5 75 -18 88
-26 14 -146 17 -220 5 l-47 -7 -16 47 c-28 84 -14 181 29 197 23 9 18 54 -8
71 -79 52 -212 64 -308 27 -134 -51 -238 -161 -372 -393 -135 -235 -209 -326
-283 -344 -36 -9 -74 4 -83 28 -12 32 11 137 65 301 92 283 73 325 -158 347
-141 14 -258 -5 -363 -57 -136 -68 -239 -180 -321 -349 -61 -127 -89 -164
-148 -199 -41 -24 -133 -52 -142 -43 -2 3 11 30 29 61 58 96 82 186 82 307 0
89 -4 113 -24 158 -74 165 -256 172 -446 16 -61 -49 -62 -47 -29 35 8 18 14
44 14 56 0 69 -189 130 -269 88 -33 -17 -36 -24 -68 -146 -74 -285 -190 -501
-311 -578 -82 -52 -132 -35 -132 44 0 34 46 211 101 389 34 111 32 141 -15
169 -41 25 -82 36 -193 49 -180 22 -363 -36 -493 -156 -75 -70 -113 -122 -184
-254 -31 -58 -73 -121 -92 -141 -55 -57 -136 -92 -220 -97 -68 -4 -73 -3 -105
26 -33 29 -34 33 -34 104 0 59 10 104 49 235 l49 161 111 -5 c61 -3 149 -11
196 -18 47 -7 90 -10 96 -8 18 6 42 56 58 121 17 65 25 156 15 166 -12 13
-121 27 -246 33 -73 3 -133 7 -133 8 0 0 18 55 40 120 49 145 50 167 11 195
-72 51 -222 69 -259 32z"/>
<path d="M4010 1660 c-8 -5 -23 -10 -32 -10 -24 0 -154 -90 -131 -90 4 0 3 -4
-3 -8 -60 -40 -177 -317 -142 -338 4 -3 8 -11 8 -17 0 -7 -4 -6 -10 3 -5 8
-10 10 -10 4 0 -6 17 -29 38 -52 44 -48 88 -56 121 -23 11 11 21 18 23 16 1
-1 19 15 40 36 20 22 34 39 32 39 -7 0 79 155 87 158 5 2 5 10 2 19 -5 12 -3
14 7 8 8 -5 11 -3 8 6 -3 8 0 23 5 34 6 11 12 25 14 30 1 6 9 28 17 50 20 54
20 81 -3 104 -11 11 -17 22 -13 25 3 3 0 6 -6 6 -5 0 -16 2 -24 5 -7 3 -20 0
-28 -5z m48 -67 c4 -37 -40 -151 -103 -270 -77 -145 -127 -193 -179 -173 -53
20 -48 126 12 253 46 98 96 157 167 198 65 38 99 36 103 -8z"/>
<path d="M2841 1644 c-19 -8 -44 -25 -56 -39 -13 -13 -26 -21 -31 -17 -4 4 -4
1 0 -6 4 -7 1 -15 -8 -18 -8 -3 -29 -32 -45 -64 -16 -33 -31 -57 -34 -54 -2 3
-7 -2 -11 -11 -3 -9 -2 -13 4 -10 6 3 10 2 10 -4 0 -5 -4 -12 -8 -15 -11 -6
-53 -145 -54 -178 -1 -12 -5 -27 -9 -33 -7 -10 -69 -235 -74 -270 -1 -11 -4
-22 -5 -25 -1 -3 -3 -9 -4 -15 -1 -5 -9 -32 -18 -60 -9 -27 -22 -76 -29 -107
-7 -32 -16 -58 -20 -58 -5 0 -6 -6 -3 -13 3 -8 -2 -33 -10 -57 -8 -23 -12 -49
-9 -58 4 -9 2 -13 -4 -9 -6 4 -10 1 -10 -6 1 -6 -4 -31 -11 -55 -17 -57 -54
-74 -125 -55 -28 7 -61 20 -75 29 -23 15 -24 20 -18 72 4 31 12 62 18 69 6 7
8 13 5 13 -3 0 2 21 10 47 18 60 45 164 46 181 0 6 5 12 10 12 5 0 7 9 4 20
-3 12 -1 18 5 14 7 -5 9 2 6 19 -3 15 -2 25 2 22 3 -2 11 14 17 35 5 22 7 37
3 35 -4 -2 1 19 10 48 24 73 33 147 16 141 -7 -3 -20 -28 -29 -57 -39 -128
-167 -616 -167 -638 0 -29 27 -62 73 -86 48 -26 170 -25 195 2 14 14 59 173
146 505 133 507 160 587 229 666 83 95 157 89 201 -17 26 -62 30 -131 11 -213
-9 -42 -18 -76 -21 -76 -3 0 -19 10 -35 23 -42 30 -137 31 -194 1 -143 -74
-117 -274 42 -320 34 -10 68 -13 91 -9 55 10 140 51 189 91 35 29 49 34 72 29
67 -15 220 34 265 84 l20 22 16 -55 c24 -76 52 -111 115 -142 49 -24 64 -26
133 -22 58 3 91 11 132 32 65 32 134 96 161 148 23 45 23 45 3 45 -8 0 -22
-13 -30 -29 -9 -17 -20 -26 -26 -22 -6 4 -8 3 -5 -3 6 -10 -60 -81 -69 -75 -3
2 -9 0 -12 -4 -4 -4 -1 -4 7 1 9 5 12 4 7 -3 -4 -7 -11 -12 -16 -12 -5 0 -21
-5 -37 -12 -47 -19 -55 -21 -125 -25 -56 -4 -75 -1 -113 18 -25 12 -43 24 -41
27 3 2 -6 16 -19 30 -13 14 -21 32 -17 40 3 10 1 13 -6 8 -8 -5 -12 0 -12 12
0 11 -12 31 -26 45 -25 25 -26 25 -59 10 -19 -9 -32 -20 -29 -24 2 -4 -12 -13
-31 -19 -19 -6 -35 -16 -35 -21 0 -6 -9 -5 -21 1 -11 7 -23 9 -27 6 -3 -3 1
-7 9 -7 26 -2 -65 -18 -106 -18 -23 -1 -47 -7 -54 -13 -11 -10 -13 -10 -7 0 4
6 3 12 -1 12 -12 0 -42 -37 -37 -44 2 -3 1 -4 -3 -1 -3 3 -15 -2 -25 -12 -10
-9 -18 -13 -18 -9 0 4 -7 0 -16 -8 -25 -26 -119 -49 -167 -41 -35 6 -128 55
-104 55 4 0 1 10 -7 23 -12 18 -20 134 -8 122 2 -1 19 13 38 31 19 19 39 32
44 29 6 -3 10 -3 10 2 0 4 15 9 33 10 28 1 29 0 10 -7 -28 -12 -63 -67 -56
-89 22 -61 90 -80 136 -37 14 13 28 22 31 19 2 -3 3 3 2 14 -2 10 2 21 8 25 7
5 5 8 -6 8 -10 0 -15 7 -14 18 2 9 -4 22 -13 29 -9 7 -11 13 -5 13 16 0 35
-25 26 -35 -4 -4 4 -1 18 6 30 17 59 50 60 67 0 6 4 12 9 12 5 0 8 48 7 108
-1 106 -16 167 -44 185 -7 5 -9 14 -6 20 4 7 4 9 0 6 -4 -4 -18 4 -31 17 -28
28 -64 30 -114 8z m49 -439 c37 -19 37 -28 4 -54 -30 -24 -54 -27 -72 -9 -17
17 -15 38 5 60 20 22 26 22 63 3z"/>
<path d="M1725 1627 c-54 -30 -128 -100 -151 -142 -10 -19 -22 -35 -27 -35 -4
0 -5 -5 -1 -12 4 -6 -1 -17 -11 -25 -11 -7 -16 -13 -12 -13 3 0 -3 -26 -14
-57 -11 -32 -21 -87 -21 -122 -1 -61 0 -65 35 -97 30 -28 40 -32 64 -25 51 15
83 34 83 49 0 9 7 13 19 9 13 -3 18 0 15 8 -3 6 2 18 11 25 8 7 15 16 15 21 0
5 16 32 35 59 20 28 33 55 30 60 -3 4 2 15 10 23 8 9 15 19 15 23 0 4 12 37
26 73 35 88 39 149 11 179 -27 29 -79 29 -132 -1z m113 -46 c7 -76 -103 -315
-184 -398 -132 -138 -182 22 -74 237 39 77 90 134 155 171 66 39 99 36 103
-10z"/>
<path d="M4897 1299 c-9 -5 -22 -7 -29 -3 -6 4 -8 3 -5 -3 8 -13 -20 -26 -36
-16 -7 3 -9 3 -5 -2 4 -4 1 -19 -6 -34 -26 -51 -4 -141 34 -141 6 0 9 -3 7 -7
-4 -7 29 -9 62 -4 18 2 87 77 98 106 16 41 23 96 12 89 -5 -3 -9 0 -9 6 0 6
-4 8 -10 5 -5 -3 -10 -1 -10 4 0 14 -79 14 -103 0z m103 -37 c0 -29 -43 -104
-72 -125 -55 -40 -114 11 -87 75 16 39 68 65 132 67 20 1 27 -4 27 -17z"/>
</g>
</svg>
